<svg width="50" height="50" viewBox="0 0 50 50" fill="none" xmlns="http://www.w3.org/2000/svg">
    <path d="M25 0C38.785 0 50 11.215 50 25C50 31.0375 47.8483 36.5817 44.2717 40.9067C44.2625 40.9192 44.2617 40.935 44.2517 40.9467C41.6692 44.0608 38.4258 46.4483 34.8117 47.9908C34.77 48.0083 34.7292 48.0275 34.6875 48.045C34.395 48.1683 34.0992 48.2825 33.8025 48.3942C33.6858 48.4383 33.5692 48.4833 33.4508 48.5258C33.195 48.6175 32.9375 48.7042 32.6783 48.7875C32.5125 48.8408 32.3467 48.8933 32.1792 48.9433C31.95 49.0117 31.72 49.0775 31.4883 49.14C31.285 49.195 31.08 49.2458 30.875 49.295C30.6675 49.345 30.4592 49.395 30.25 49.4392C30.0167 49.4892 29.7808 49.5333 29.5442 49.5767C29.3542 49.6117 29.165 49.6483 28.9733 49.6792C28.7108 49.7217 28.4467 49.755 28.1817 49.7892C28.0108 49.8108 27.8408 49.8358 27.6692 49.8542C27.3692 49.8858 27.0667 49.9083 26.7633 49.9292C26.6225 49.9392 26.4825 49.9542 26.3408 49.9617C25.8983 49.9867 25.4508 50 25 50C24.5492 50 24.1017 49.9867 23.6575 49.9633C23.5158 49.9558 23.3758 49.9408 23.235 49.9308C22.9317 49.9092 22.6292 49.8875 22.3292 49.8558C22.1575 49.8375 21.9875 49.8125 21.8167 49.7908C21.5517 49.7567 21.2875 49.7233 21.025 49.6808C20.8342 49.65 20.6442 49.6133 20.4542 49.5783C20.2183 49.535 19.9825 49.4908 19.7483 49.4408C19.5392 49.3958 19.3317 49.3467 19.1233 49.2967C18.9183 49.2467 18.7133 49.1958 18.51 49.1417C18.2783 49.08 18.0483 49.0133 17.8192 48.945C17.6517 48.895 17.4858 48.8425 17.32 48.7892C17.0608 48.7058 16.8033 48.6192 16.5475 48.5275C16.43 48.485 16.3133 48.44 16.1958 48.3958C15.8983 48.2842 15.6033 48.1692 15.3108 48.0467C15.2692 48.0292 15.2283 48.01 15.1867 47.9925C11.5733 46.45 8.32917 44.0625 5.74667 40.9483C5.73667 40.9367 5.73583 40.92 5.72667 40.9083C2.15166 36.5817 0 31.0375 0 25C0 11.215 11.215 0 25 0ZM14.8692 46.0167C14.8817 46.0225 14.8933 46.0292 14.9058 46.035C15.2033 46.1783 15.5058 46.3133 15.8108 46.445C15.88 46.4742 15.9483 46.5042 16.0175 46.5333C16.2842 46.645 16.5542 46.7508 16.8258 46.8525C16.9392 46.895 17.0525 46.9367 17.1667 46.9767C17.4075 47.0625 17.6492 47.145 17.8933 47.2233C18.045 47.2717 18.1975 47.3175 18.35 47.3625C18.5667 47.4275 18.7842 47.49 19.0042 47.5483C19.1892 47.5975 19.3758 47.6425 19.5625 47.6867C19.7583 47.7333 19.9533 47.7808 20.1508 47.8225C20.3622 47.8674 20.5752 47.9059 20.7875 47.9443C20.7919 47.9451 20.7964 47.9459 20.8008 47.9467C20.9767 47.9792 21.1517 48.0133 21.3292 48.0417C21.5699 48.0795 21.813 48.11 22.0554 48.1404C22.0589 48.1408 22.0624 48.1412 22.0658 48.1417C22.2217 48.1617 22.3767 48.185 22.5342 48.2017C22.7939 48.2294 23.0558 48.2479 23.3172 48.2663C23.3384 48.2678 23.3596 48.2693 23.3808 48.2708C23.5067 48.2792 23.6317 48.2933 23.7592 48.3C24.1717 48.3217 24.585 48.3333 25 48.3333C25.415 48.3333 25.8283 48.3217 26.24 48.3C26.3667 48.2933 26.4917 48.28 26.6183 48.2708C26.9017 48.2517 27.1842 48.2317 27.465 48.2017C27.6225 48.185 27.7775 48.1617 27.9333 48.1417C27.9368 48.1412 27.9403 48.1408 27.9438 48.1404C28.1862 48.11 28.4293 48.0795 28.67 48.0417C28.8475 48.0133 29.0225 47.9792 29.1983 47.9467C29.4158 47.9075 29.6333 47.8675 29.8483 47.8225C30.0276 47.7847 30.2054 47.7421 30.3825 47.6996C30.4006 47.6953 30.4186 47.691 30.4367 47.6867C30.6233 47.6417 30.81 47.5975 30.995 47.5483C31.2142 47.49 31.4325 47.4267 31.6492 47.3625C31.8017 47.3175 31.9542 47.2717 32.1058 47.2233C32.35 47.145 32.5925 47.0625 32.8325 46.9767C32.9467 46.9358 33.06 46.8942 33.1733 46.8525C33.445 46.7508 33.715 46.645 33.9817 46.5333C34.0508 46.505 34.1183 46.475 34.1875 46.4458C34.4925 46.315 34.795 46.1792 35.0933 46.0358C35.1058 46.03 35.1175 46.0242 35.13 46.0175C38.0375 44.6108 40.6058 42.6142 42.69 40.1892C41.0792 34.2575 36.5192 29.4758 30.6525 27.5733C30.5367 27.6442 30.4158 27.7075 30.2967 27.7742C30.2267 27.8133 30.1575 27.855 30.0867 27.8925C29.8383 28.0242 29.5867 28.1475 29.3292 28.2583C29.1317 28.345 28.9275 28.4183 28.7242 28.4933C28.6842 28.5075 28.6442 28.5233 28.6042 28.5375C27.4742 28.9375 26.265 29.1667 25 29.1667C23.735 29.1667 22.5258 28.9375 21.3967 28.5375C21.3567 28.5233 21.3167 28.5075 21.2767 28.4933 21.0733 28.4183 20.8692 28.345 20.6717 28.2583C20.4142 28.1475 20.1625 28.0242 19.9142 27.8925C19.8433 27.8542 19.7742 27.8133 19.7042 27.7742C19.585 27.7075 19.4633 27.6442 19.3467 27.5725C13.48 29.4758 8.92083 34.2575 7.30917 40.1883C9.39333 42.6125 11.9617 44.6092 14.8692 46.0167ZM34.1667 18.3333C34.1667 13.2792 30.0542 9.16667 25 9.16667C19.9458 9.16667 15.8333 13.2792 15.8333 18.3333C15.8333 21.5483 17.5008 24.3775 20.0133 26.0142C20.3417 26.2275 20.6833 26.4183 21.0342 26.585C21.0758 26.605 21.1167 26.6258 21.1583 26.645C23.5717 27.7425 26.4283 27.7425 28.8417 26.645C28.8833 26.6258 28.925 26.605 28.9658 26.585C29.3175 26.4183 29.6583 26.2275 29.9867 26.0142C32.4992 24.3775 34.1667 21.5483 34.1667 18.3333ZM6.05917 38.6025C7.94833 33.0242 12.2583 28.5158 17.765 26.3742C15.5625 24.39 14.1667 21.525 14.1667 18.3333C14.1667 12.36 19.0267 7.5 25 7.5C30.9733 7.5 35.8333 12.36 35.8333 18.3333C35.8333 21.525 34.4375 24.39 32.2342 26.3742C37.7408 28.5167 42.0508 33.0242 43.94 38.6025C46.7008 34.77 48.3333 30.0733 48.3333 25C48.3333 12.1342 37.8658 1.66667 25 1.66667C12.1342 1.66667 1.66667 12.1342 1.66667 25C1.66667 30.0733 3.29916 34.77 6.05917 38.6025Z" fill="white"/>
    <path d="M34.1667 18.3333C34.1667 13.2792 30.0542 9.16667 25 9.16667C19.9458 9.16667 15.8333 13.2792 15.8333 18.3333C15.8333 21.5483 17.5008 24.3775 20.0133 26.0142C20.3417 26.2275 20.6833 26.4183 21.0342 26.585C21.0758 26.605 21.1167 26.6258 21.1583 26.645C23.5717 27.7425 26.4283 27.7425 28.8417 26.645C28.8833 26.6258 28.925 26.605 28.9658 26.585C29.3175 26.4183 29.6583 26.2275 29.9867 26.0142C32.4992 24.3775 34.1667 21.5483 34.1667 18.3333Z" fill="white"/>
    <path d="M14.8692 46.0167C14.8817 46.0225 14.8933 46.0292 14.9058 46.035C15.2033 46.1783 15.5058 46.3133 15.8108 46.445C15.88 46.4742 15.9483 46.5042 16.0175 46.5333C16.2842 46.645 16.5542 46.7508 16.8258 46.8525C16.9392 46.895 17.0525 46.9367 17.1667 46.9767C17.4075 47.0625 17.6492 47.145 17.8933 47.2233C18.045 47.2717 18.1975 47.3175 18.35 47.3625C18.5667 47.4275 18.7842 47.49 19.0042 47.5483C19.1892 47.5975 19.3758 47.6425 19.5625 47.6867C19.7583 47.7333 19.9533 47.7808 20.1508 47.8225C20.3622 47.8674 20.5752 47.9059 20.7875 47.9443L20.8008 47.9467C20.9767 47.9792 21.1517 48.0133 21.3292 48.0417C21.5699 48.0795 21.813 48.11 22.0554 48.1404L22.0658 48.1417C22.2217 48.1617 22.3767 48.185 22.5342 48.2017C22.7939 48.2294 23.0558 48.2479 23.3172 48.2663L23.3808 48.2708C23.5067 48.2792 23.6317 48.2933 23.7592 48.3C24.1717 48.3217 24.585 48.3333 25 48.3333C25.415 48.3333 25.8283 48.3217 26.24 48.3C26.3667 48.2933 26.4917 48.28 26.6183 48.2708C26.9017 48.2517 27.1842 48.2317 27.465 48.2017C27.6225 48.185 27.7775 48.1617 27.9333 48.1417L27.9438 48.1404C28.1862 48.11 28.4293 48.0795 28.67 48.0417C28.8475 48.0133 29.0225 47.9792 29.1983 47.9467C29.4158 47.9075 29.6333 47.8675 29.8483 47.8225C30.0276 47.7847 30.2054 47.7421 30.3825 47.6996L30.4367 47.6867C30.6233 47.6417 30.81 47.5975 30.995 47.5483C31.2142 47.49 31.4325 47.4267 31.6492 47.3625C31.8017 47.3175 31.9542 47.2717 32.1058 47.2233C32.35 47.145 32.5925 47.0625 32.8325 46.9767C32.9467 46.9358 33.06 46.8942 33.1733 46.8525C33.445 46.7508 33.715 46.645 33.9817 46.5333C34.0508 46.505 34.1183 46.475 34.1875 46.4458C34.4925 46.315 34.795 46.1792 35.0933 46.0358C35.1058 46.03 35.1175 46.0242 35.13 46.0175C38.0375 44.6108 40.6058 42.6142 42.69 40.1892C41.0792 34.2575 36.5192 29.4758 30.6525 27.5733C30.5367 27.6442 30.4158 27.7075 30.2967 27.7742C30.2267 27.8133 30.1575 27.855 30.0867 27.8925C29.8383 28.0242 29.5867 28.1475 29.3292 28.2583C29.1317 28.345 28.9275 28.4183 28.7242 28.4933C28.6842 28.5075 28.6442 28.5233 28.6042 28.5375C27.4742 28.9375 26.265 29.1667 25 29.1667C23.735 29.1667 22.5258 28.9375 21.3967 28.5375C21.3567 28.5233 21.3167 28.5075 21.2767 28.4933C21.0733 28.4183 20.8692 28.345 20.6717 28.2583C20.4142 28.1475 20.1625 28.0242 19.9142 27.8925C19.8433 27.8542 19.7742 27.8133 19.7042 27.7742C19.585 27.7075 19.4633 27.6442 19.3467 27.5725C13.48 29.4758 8.92083 34.2575 7.30917 40.1883C9.39333 42.6125 11.9617 44.6092 14.8692 46.0167Z" fill="white"/>
    <path d="M25 0C38.785 0 50 11.215 50 25C50 31.0375 47.8483 36.5817 44.2717 40.9067C44.2625 40.9192 44.2617 40.935 44.2517 40.9467C41.6692 44.0608 38.4258 46.4483 34.8117 47.9908C34.77 48.0083 34.7292 48.0275 34.6875 48.045C34.395 48.1683 34.0992 48.2825 33.8025 48.3942C33.6858 48.4383 33.5692 48.4833 33.4508 48.5258C33.195 48.6175 32.9375 48.7042 32.6783 48.7875C32.5125 48.8408 32.3467 48.8933 32.1792 48.9433C31.95 49.0117 31.72 49.0775 31.4883 49.14C31.285 49.195 31.08 49.2458 30.875 49.295C30.6675 49.345 30.4592 49.395 30.25 49.4392C30.0167 49.4892 29.7808 49.5333 29.5442 49.5767C29.3542 49.6117 29.165 49.6483 28.9733 49.6792C28.7108 49.7217 28.4467 49.755 28.1817 49.7892C28.0108 49.8108 27.8408 49.8358 27.6692 49.8542C27.3692 49.8858 27.0667 49.9083 26.7633 49.9292C26.6225 49.9392 26.4825 49.9542 26.3408 49.9617C25.8983 49.9867 25.4508 50 25 50C24.5492 50 24.1017 49.9867 23.6575 49.9633C23.5158 49.9558 23.3758 49.9408 23.235 49.9308C22.9317 49.9092 22.6292 49.8875 22.3292 49.8558C22.1575 49.8375 21.9875 49.8125 21.8167 49.7908C21.5517 49.7567 21.2875 49.7233 21.025 49.6808C20.8342 49.65 20.6442 49.6133 20.4542 49.5783C20.2183 49.535 19.9825 49.4908 19.7483 49.4408C19.5392 49.3958 19.3317 49.3467 19.1233 49.2967C18.9183 49.2467 18.7133 49.1958 18.51 49.1417C18.2783 49.08 18.0483 49.0133 17.8192 48.945C17.6517 48.895 17.4858 48.8425 17.32 48.7892C17.0608 48.7058 16.8033 48.6192 16.5475 48.5275C16.43 48.485 16.3133 48.44 16.1958 48.3958C15.8983 48.2842 15.6033 48.1692 15.3108 48.0467C15.2692 48.0292 15.2283 48.01 15.1867 47.9925C11.5733 46.45 8.32917 44.0625 5.74667 40.9483C5.73667 40.9367 5.73583 40.92 5.72667 40.9083C2.15166 36.5817 0 31.0375 0 25C0 11.215 11.215 0 25 0ZM14.8692 46.0167C14.8817 46.0225 14.8933 46.0292 14.9058 46.035C15.2033 46.1783 15.5058 46.3133 15.8108 46.445C15.88 46.4742 15.9483 46.5042 16.0175 46.5333C16.2842 46.645 16.5542 46.7508 16.8258 46.8525C16.9392 46.895 17.0525 46.9367 17.1667 46.9767C17.4075 47.0625 17.6492 47.145 17.8933 47.2233C18.045 47.2717 18.1975 47.3175 18.35 47.3625C18.5667 47.4275 18.7842 47.49 19.0042 47.5483C19.1892 47.5975 19.3758 47.6425 19.5625 47.6867C19.7583 47.7333 19.9533 47.7808 20.1508 47.8225C20.3667 47.8683 20.5842 47.9075 20.8008 47.9467C20.9767 47.9792 21.1517 48.0133 21.3292 48.0417C21.5733 48.08 21.82 48.1108 22.0658 48.1417C22.2217 48.1617 22.3767 48.185 22.5342 48.2017C22.815 48.2317 23.0983 48.2508 23.3808 48.2708C23.5067 48.2792 23.6317 48.2933 23.7592 48.3C24.1717 48.3217 24.585 48.3333 25 48.3333C25.415 48.3333 25.8283 48.3217 26.24 48.3C26.3667 48.2933 26.4917 48.28 26.6183 48.2708C26.9017 48.2517 27.1842 48.2317 27.465 48.2017C27.6225 48.185 27.7775 48.1617 27.9333 48.1417C28.1792 48.1108 28.4258 48.08 28.67 48.0417C28.8475 48.0133 29.0225 47.9792 29.1983 47.9467C29.4158 47.9075 29.6333 47.8675 29.8483 47.8225C30.0458 47.7808 30.2417 47.7333 30.4367 47.6867C30.6233 47.6417 30.81 47.5975 30.995 47.5483C31.2142 47.49 31.4325 47.4267 31.6492 47.3625C31.8017 47.3175 31.9542 47.2717 32.1058 47.2233C32.35 47.145 32.5925 47.0625 32.8325 46.9767C32.9467 46.9358 33.06 46.8942 33.1733 46.8525C33.445 46.7508 33.715 46.645 33.9817 46.5333C34.0508 46.505 34.1183 46.475 34.1875 46.4458C34.4925 46.315 34.795 46.1792 35.0933 46.0358C35.1058 46.03 35.1175 46.0242 35.13 46.0175C38.0375 44.6108 40.6058 42.6142 42.69 40.1892C41.0792 34.2575 36.5192 29.4758 30.6525 27.5733C30.5367 27.6442 30.4158 27.7075 30.2967 27.7742C30.2267 27.8133 30.1575 27.855 30.0867 27.8925C29.8383 28.0242 29.5867 28.1475 29.3292 28.2583C29.1317 28.345 28.9275 28.4183 28.7242 28.4933C28.6842 28.5075 28.6442 28.5233 28.6042 28.5375C27.4742 28.9375 26.265 29.1667 25 29.1667C23.735 29.1667 22.5258 28.9375 21.3967 28.5375C21.3567 28.5233 21.3167 28.5075 21.2767 28.4933C21.0733 28.4183 20.8692 28.345 20.6717 28.2583C20.4142 28.1475 20.1625 28.0242 19.9142 27.8925C19.8433 27.8542 19.7742 27.8133 19.7042 27.7742C19.585 27.7075 19.4633 27.6442 19.3467 27.5725C13.48 29.4758 8.92083 34.2575 7.30917 40.1883C9.39333 42.6125 11.9617 44.6092 14.8692 46.0167ZM34.1667 18.3333C34.1667 13.2792 30.0542 9.16667 25 9.16667C19.9458 9.16667 15.8333 13.2792 15.8333 18.3333C15.8333 21.5483 17.5008 24.3775 20.0133 26.0142C20.3417 26.2275 20.6833 26.4183 21.0342 26.585C21.0758 26.605 21.1167 26.6258 21.1583 26.645C23.5717 27.7425 26.4283 27.7425 28.8417 26.645C28.8833 26.6258 28.925 26.605 28.9658 26.585C29.3175 26.4183 29.6583 26.2275 29.9867 26.0142C32.4992 24.3775 34.1667 21.5483 34.1667 18.3333ZM6.05917 38.6025C7.94833 33.0242 12.2583 28.5158 17.765 26.3742C15.5625 24.39 14.1667 21.525 14.1667 18.3333C14.1667 12.36 19.0267 7.5 25 7.5C30.9733 7.5 35.8333 12.36 35.8333 18.3333C35.8333 21.525 34.4375 24.39 32.2342 26.3742C37.7408 28.5167 42.0508 33.0242 43.94 38.6025C46.7008 34.77 48.3333 30.0733 48.3333 25C48.3333 12.1342 37.8658 1.66667 25 1.66667C12.1342 1.66667 1.66667 12.1342 1.66667 25C1.66667 30.0733 3.29916 34.77 6.05917 38.6025Z" fill="black"/>
</svg>