<svg width="45" height="40" viewBox="0 0 45 40" fill="none" xmlns="http://www.w3.org/2000/svg">
    <path d="M44.7228 7.60524C44.4511 7.25343 44.0172 7.04523 43.5562 7.04523H11.0697C11.0067 7.04523 10.9439 7.04885 10.8834 7.05655L9.54639 3.41666C9.40782 3.04021 9.10268 2.74013 8.71053 2.59433L1.97246 0.0944357C1.22985 -0.180149 0.391867 0.164342 0.100221 0.864834C-0.190922 1.56571 0.173736 2.3576 0.915944 2.63304L7.03568 4.90353L14.5263 25.2952C14.1957 25.404 13.9155 25.6436 13.788 25.9788L11.6222 31.6606C11.4894 32.009 11.5441 32.3961 11.77 32.6988C11.9956 33.0016 12.3625 33.1818 12.7542 33.1818H13.8664C13.1772 33.9062 12.7542 34.8601 12.7542 35.9091C12.7542 38.1649 14.6976 40 17.0858 40C19.4739 40 21.4174 38.1649 21.4174 35.9091C21.4174 34.8601 20.9944 33.9062 20.3052 33.1818H29.749C29.0595 33.9062 28.6364 34.8601 28.6364 35.9091C28.6364 38.1649 30.5795 40 32.9681 40C35.3567 40 37.2997 38.1649 37.2997 35.9091C37.2997 34.8601 36.8767 33.9062 36.1876 33.1818H37.5404C38.205 33.1818 38.7435 32.673 38.7435 32.0454C38.7435 31.4178 38.2049 30.9091 37.5404 30.9091H14.4662L15.8075 27.3904C15.9807 27.4593 16.1678 27.5 16.3637 27.5H37.5401C38.1679 27.5 38.7235 27.1169 38.9147 26.5528L44.9308 8.82533C45.0719 8.41026 44.9945 7.95706 44.7228 7.60524ZM17.0858 37.7272C16.024 37.7272 15.1607 36.9118 15.1607 35.9091C15.1607 34.9063 16.024 34.0909 17.0858 34.0909C18.1475 34.0909 19.0109 34.9063 19.0109 35.9091C19.0109 36.9118 18.1475 37.7272 17.0858 37.7272ZM32.968 37.7272C31.9063 37.7272 31.0428 36.9118 31.0428 35.9091C31.0428 34.9063 31.9063 34.0909 32.968 34.0909C34.0297 34.0909 34.8931 34.9063 34.8931 35.9091C34.8931 36.9118 34.0297 37.7272 32.968 37.7272ZM40.5364 12.8407H33.1686V9.77253H41.5775L40.5364 12.8407ZM38.4148 19.0906H33.1686V15.5679H39.6105L38.4148 19.0906ZM23.6228 19.0906V15.5679H30.2809V19.0906H23.6228ZM30.2809 21.8181V24.7727H23.6228V21.8181H30.2809ZM14.0098 15.5679H20.7354V19.0906H15.304L14.0098 15.5679ZM23.6228 12.8407V9.77253H30.2809V12.8407H23.6228ZM20.7353 9.77253V12.8407H13.0077L11.8807 9.77253H20.7353ZM16.306 21.8181H20.7353V24.7727H17.3912L16.306 21.8181ZM33.1686 24.7728V21.8182H37.4898L36.4873 24.7728H33.1686Z" fill="black"/>
</svg>